<svg viewBox="0 0 64 64" xmlns="http://www.w3.org/2000/svg">
  <defs></defs>
  <path fill="#FF8700" d="M0 0h64v64H0z"></path>
  <g style="" transform="matrix(1.253819, 0, 0, 1.253819, -8.926606, -10.379084)">
    <path style="stroke: none; fill: rgb(255, 255, 255); fill-opacity: 0.5;" d="M 30.665 51.179 L 36.06 47.289 L 35.809 16.421 L 30.665 20.437 L 30.665 51.179 Z" id="path25468"></path>
    <path style="fill-opacity: 1; stroke: none; fill: rgb(255, 255, 255);" d="M 30.728 51.179 C 10.545 47.971 9.97 30.4 30.601 26.584 L 30.665 30.224 C 16.03 32.663 17.883 45.793 30.665 47.728 L 30.728 51.179 Z" id="path25470"></path>
    <path style="fill-opacity: 1; stroke: none; fill: rgb(255, 255, 255);" d="M 35.998 30.098 C 38.493 30.115 40.667 31.257 42.836 32.419 L 39.637 34.803 L 49.863 34.803 L 49.925 27.839 L 46.726 30.224 C 43.488 28.588 40.512 26.626 35.998 26.584 L 35.998 30.098 Z" id="path25472"></path>
  </g>
</svg>
